<svg aria-hidden="true" style="position: absolute; width: 0; height: 0; overflow: hidden;" version="1.1" xmlns="http://www.w3.org/2000/svg" xmlns:xlink="http://www.w3.org/1999/xlink">
<defs>
<symbol id="icon-plus" viewBox="0 0 22 28">
<title>plus</title>
<path d="M22 11.5v3c0 0.828-0.672 1.5-1.5 1.5h-6.5v6.5c0 0.828-0.672 1.5-1.5 1.5h-3c-0.828 0-1.5-0.672-1.5-1.5v-6.5h-6.5c-0.828 0-1.5-0.672-1.5-1.5v-3c0-0.828 0.672-1.5 1.5-1.5h6.5v-6.5c0-0.828 0.672-1.5 1.5-1.5h3c0.828 0 1.5 0.672 1.5 1.5v6.5h6.5c0.828 0 1.5 0.672 1.5 1.5z"></path>
</symbol>
<symbol id="icon-heart" viewBox="0 0 28 28">
<title>heart</title>
<path d="M14 26c-0.25 0-0.5-0.094-0.688-0.281l-9.75-9.406c-0.125-0.109-3.563-3.25-3.563-7 0-4.578 2.797-7.313 7.469-7.313 2.734 0 5.297 2.156 6.531 3.375 1.234-1.219 3.797-3.375 6.531-3.375 4.672 0 7.469 2.734 7.469 7.313 0 3.75-3.437 6.891-3.578 7.031l-9.734 9.375c-0.187 0.187-0.438 0.281-0.688 0.281z"></path>
</symbol>
<symbol id="icon-star-o" viewBox="0 0 26 28">
<title>star-o</title>
<path d="M17.766 15.687l4.781-4.641-6.594-0.969-2.953-5.969-2.953 5.969-6.594 0.969 4.781 4.641-1.141 6.578 5.906-3.109 5.891 3.109zM26 10.109c0 0.281-0.203 0.547-0.406 0.75l-5.672 5.531 1.344 7.812c0.016 0.109 0.016 0.203 0.016 0.313 0 0.422-0.187 0.781-0.641 0.781-0.219 0-0.438-0.078-0.625-0.187l-7.016-3.687-7.016 3.687c-0.203 0.109-0.406 0.187-0.625 0.187-0.453 0-0.656-0.375-0.656-0.781 0-0.109 0.016-0.203 0.031-0.313l1.344-7.812-5.688-5.531c-0.187-0.203-0.391-0.469-0.391-0.75 0-0.469 0.484-0.656 0.875-0.719l7.844-1.141 3.516-7.109c0.141-0.297 0.406-0.641 0.766-0.641s0.625 0.344 0.766 0.641l3.516 7.109 7.844 1.141c0.375 0.063 0.875 0.25 0.875 0.719z"></path>
</symbol>
<symbol id="icon-home" viewBox="0 0 26 28">
<title>home</title>
<path d="M22 15.5v7.5c0 0.547-0.453 1-1 1h-6v-6h-4v6h-6c-0.547 0-1-0.453-1-1v-7.5c0-0.031 0.016-0.063 0.016-0.094l8.984-7.406 8.984 7.406c0.016 0.031 0.016 0.063 0.016 0.094zM25.484 14.422l-0.969 1.156c-0.078 0.094-0.203 0.156-0.328 0.172h-0.047c-0.125 0-0.234-0.031-0.328-0.109l-10.813-9.016-10.813 9.016c-0.109 0.078-0.234 0.125-0.375 0.109-0.125-0.016-0.25-0.078-0.328-0.172l-0.969-1.156c-0.172-0.203-0.141-0.531 0.063-0.703l11.234-9.359c0.656-0.547 1.719-0.547 2.375 0l3.813 3.187v-3.047c0-0.281 0.219-0.5 0.5-0.5h3c0.281 0 0.5 0.219 0.5 0.5v6.375l3.422 2.844c0.203 0.172 0.234 0.5 0.063 0.703z"></path>
</symbol>
<symbol id="icon-calendar" viewBox="0 0 26 28">
<title>calendar</title>
<path d="M2 26h4.5v-4.5h-4.5v4.5zM7.5 26h5v-4.5h-5v4.5zM2 20.5h4.5v-5h-4.5v5zM7.5 20.5h5v-5h-5v5zM2 14.5h4.5v-4.5h-4.5v4.5zM13.5 26h5v-4.5h-5v4.5zM7.5 14.5h5v-4.5h-5v4.5zM19.5 26h4.5v-4.5h-4.5v4.5zM13.5 20.5h5v-5h-5v5zM8 7v-4.5c0-0.266-0.234-0.5-0.5-0.5h-1c-0.266 0-0.5 0.234-0.5 0.5v4.5c0 0.266 0.234 0.5 0.5 0.5h1c0.266 0 0.5-0.234 0.5-0.5zM19.5 20.5h4.5v-5h-4.5v5zM13.5 14.5h5v-4.5h-5v4.5zM19.5 14.5h4.5v-4.5h-4.5v4.5zM20 7v-4.5c0-0.266-0.234-0.5-0.5-0.5h-1c-0.266 0-0.5 0.234-0.5 0.5v4.5c0 0.266 0.234 0.5 0.5 0.5h1c0.266 0 0.5-0.234 0.5-0.5zM26 6v20c0 1.094-0.906 2-2 2h-22c-1.094 0-2-0.906-2-2v-20c0-1.094 0.906-2 2-2h2v-1.5c0-1.375 1.125-2.5 2.5-2.5h1c1.375 0 2.5 1.125 2.5 2.5v1.5h6v-1.5c0-1.375 1.125-2.5 2.5-2.5h1c1.375 0 2.5 1.125 2.5 2.5v1.5h2c1.094 0 2 0.906 2 2z"></path>
</symbol>
<symbol id="icon-key" viewBox="0 0 26 28">
<title>key</title>
<path d="M13 8c0-1.656-1.344-3-3-3s-3 1.344-3 3c0 0.453 0.109 0.891 0.297 1.297-0.406-0.187-0.844-0.297-1.297-0.297-1.656 0-3 1.344-3 3s1.344 3 3 3 3-1.344 3-3c0-0.453-0.109-0.891-0.297-1.297 0.406 0.187 0.844 0.297 1.297 0.297 1.656 0 3-1.344 3-3zM26.297 19c0 0.359-1.437 1.797-1.797 1.797-0.406 0-1.672-1.469-2-1.797l-1.5 1.5 3.437 3.437c0.281 0.281 0.438 0.672 0.438 1.062 0 0.875-1 1.875-1.875 1.875-0.391 0-0.781-0.156-1.062-0.438l-10.484-10.484c-1.641 1.219-3.641 2.047-5.703 2.047-3.406 0-5.75-2.359-5.75-5.75 0-5.125 5.125-10.25 10.25-10.25 3.391 0 5.75 2.344 5.75 5.75 0 2.063-0.828 4.062-2.047 5.703l5.547 5.547 1.5-1.5c-0.328-0.328-1.797-1.594-1.797-2 0-0.359 1.437-1.797 1.797-1.797 0.125 0 0.266 0.063 0.359 0.156 0.578 0.578 4.937 4.688 4.937 5.141z"></path>
</symbol>
<symbol id="icon-money" viewBox="0 0 30 28">
<title>money</title>
<path d="M12 18h6v-1.5h-2v-7h-1.781l-2.312 2.141 1.203 1.25c0.375-0.328 0.609-0.5 0.859-0.891h0.031v4.5h-2v1.5zM20 14c0 2.844-1.719 6.5-5 6.5s-5-3.656-5-6.5 1.719-6.5 5-6.5 5 3.656 5 6.5zM28 18v-8c-2.203 0-4-1.797-4-4h-18c0 2.203-1.797 4-4 4v8c2.203 0 4 1.797 4 4h18c0-2.203 1.797-4 4-4zM30 5v18c0 0.547-0.453 1-1 1h-28c-0.547 0-1-0.453-1-1v-18c0-0.547 0.453-1 1-1h28c0.547 0 1 0.453 1 1z"></path>
</symbol>
<symbol id="icon-github-alt" viewBox="0 0 26 28">
<title>github-alt</title>
<path d="M10 19c0 1.141-0.594 3-2 3s-2-1.859-2-3 0.594-3 2-3 2 1.859 2 3zM20 19c0 1.141-0.594 3-2 3s-2-1.859-2-3 0.594-3 2-3 2 1.859 2 3zM22.5 19c0-2.391-1.453-4.5-4-4.5-1.031 0-2.016 0.187-3.047 0.328-0.812 0.125-1.625 0.172-2.453 0.172s-1.641-0.047-2.453-0.172c-1.016-0.141-2.016-0.328-3.047-0.328-2.547 0-4 2.109-4 4.5 0 4.781 4.375 5.516 8.188 5.516h2.625c3.813 0 8.188-0.734 8.188-5.516zM26 16.25c0 1.734-0.172 3.578-0.953 5.172-2.063 4.172-7.734 4.578-11.797 4.578-4.125 0-10.141-0.359-12.281-4.578-0.797-1.578-0.969-3.437-0.969-5.172 0-2.281 0.625-4.438 2.125-6.188-0.281-0.859-0.422-1.766-0.422-2.656 0-1.172 0.266-2.344 0.797-3.406 2.469 0 4.047 1.078 5.922 2.547 1.578-0.375 3.203-0.547 4.828-0.547 1.469 0 2.953 0.156 4.375 0.5 1.859-1.453 3.437-2.5 5.875-2.5 0.531 1.062 0.797 2.234 0.797 3.406 0 0.891-0.141 1.781-0.422 2.625 1.5 1.766 2.125 3.938 2.125 6.219z"></path>
</symbol>
<symbol id="icon-sun-o" viewBox="0 0 28 28">
<title>sun-o</title>
<path d="M23 14c0-4.969-4.031-9-9-9s-9 4.031-9 9 4.031 9 9 9 9-4.031 9-9zM27.312 18.328c-0.047 0.156-0.172 0.266-0.313 0.313l-4.562 1.5v4.781c0 0.156-0.078 0.313-0.203 0.406-0.141 0.094-0.297 0.125-0.453 0.063l-4.562-1.469-2.812 3.875c-0.094 0.125-0.25 0.203-0.406 0.203s-0.313-0.078-0.406-0.203l-2.812-3.875-4.562 1.469c-0.156 0.063-0.313 0.031-0.453-0.063-0.125-0.094-0.203-0.25-0.203-0.406v-4.781l-4.562-1.5c-0.141-0.047-0.266-0.156-0.313-0.313s-0.031-0.328 0.063-0.453l2.812-3.875-2.812-3.875c-0.094-0.141-0.109-0.297-0.063-0.453s0.172-0.266 0.313-0.313l4.562-1.5v-4.781c0-0.156 0.078-0.313 0.203-0.406 0.141-0.094 0.297-0.125 0.453-0.063l4.562 1.469 2.812-3.875c0.187-0.25 0.625-0.25 0.812 0l2.812 3.875 4.562-1.469c0.156-0.063 0.313-0.031 0.453 0.063 0.125 0.094 0.203 0.25 0.203 0.406v4.781l4.562 1.5c0.141 0.047 0.266 0.156 0.313 0.313s0.031 0.313-0.063 0.453l-2.812 3.875 2.812 3.875c0.094 0.125 0.109 0.297 0.063 0.453z"></path>
</symbol>
<symbol id="icon-pagelines" viewBox="0 0 22 28">
<title>pagelines</title>
<path d="M21.906 17.234c-3.141 7.797-10.672 3.078-10.672 3.078-2.312 4.672-6.125 7.672-10.531 7.688-0.391 0-0.703-0.313-0.703-0.703s0.313-0.688 0.703-0.688c3.672-0.016 6.875-2.438 8.969-6.281-2.344 0.906-6.766 1.594-9.219-4.688 6.219-2.562 9.078 0.641 10.172 2.594 0.562-1.391 0.969-2.906 1.234-4.547 0 0-7.969 1.25-8.531-5.594 6.797-2.734 8.703 4.375 8.703 4.375 0.094-0.953 0.187-3 0.187-3.047 0 0-6.062-4.203-2.172-9.422 7.109 2.453 3.5 9.266 3.5 9.266 0.031 0.094 0.031 1.359 0 1.906 0 0 2.578-5.078 7.781-3.281-0.234 7.641-8.094 6.062-8.094 6.062-0.25 1.563-0.641 3.047-1.141 4.422 0 0 4.734-5.234 9.812-1.141z"></path>
</symbol>
<symbol id="icon-paw" viewBox="0 0 26 28">
<title>paw</title>
<path d="M12.187 7.375c0 1.75-0.906 3.828-2.922 3.828-2.531 0-4.062-3.187-4.062-5.375 0-1.75 0.906-3.828 2.922-3.828 2.547 0 4.062 3.187 4.062 5.375zM6.844 14.922c0 1.516-0.797 3.094-2.516 3.094-2.5 0-4.328-3.063-4.328-5.328 0-1.516 0.812-3.109 2.516-3.109 2.5 0 4.328 3.078 4.328 5.344zM13 14.5c3.828 0 9 5.516 9 9.203 0 1.984-1.625 2.297-3.219 2.297-2.094 0-3.781-1.406-5.781-1.406-2.094 0-3.875 1.391-6.141 1.391-1.516 0-2.859-0.516-2.859-2.281 0-3.703 5.172-9.203 9-9.203zM16.734 11.203c-2.016 0-2.922-2.078-2.922-3.828 0-2.188 1.516-5.375 4.062-5.375 2.016 0 2.922 2.078 2.922 3.828 0 2.188-1.531 5.375-4.062 5.375zM23.484 9.578c1.703 0 2.516 1.594 2.516 3.109 0 2.266-1.828 5.328-4.328 5.328-1.719 0-2.516-1.578-2.516-3.094 0-2.266 1.828-5.344 4.328-5.344z"></path>
</symbol>
<symbol id="icon-chat" viewBox="0 0 20 20">
<title>chat</title>
<path d="M5.8 12.2v-6.2h-3.8c-1.1 0-2 0.9-2 2v6c0 1.1 0.9 2 2 2h1v3l3-3h5c1.1 0 2-0.9 2-2v-1.82c-0.064 0.014-0.132 0.021-0.2 0.021l-7-0.001zM18 1h-9c-1.1 0-2 0.9-2 2v8h7l3 3v-3h1c1.1 0 2-0.899 2-2v-6c0-1.1-0.9-2-2-2z"></path>
</symbol>
<symbol id="icon-key1" viewBox="0 0 20 20">
<title>key1</title>
<path d="M17.691 4.725c-0.503-2.977-3.22-4.967-6.069-4.441s-5.256 2.816-4.753 5.795c0.107 0.641 0.408 1.644 0.763 2.365l-5.175 7.723c-0.191 0.285-0.299 0.799-0.242 1.141l0.333 1.971c0.058 0.342 0.372 0.572 0.7 0.514l1.516-0.281c0.328-0.059 0.744-0.348 0.924-0.639l2.047-3.311 0.018-0.022 1.386-0.256 2.39-3.879c0.785 0.139 1.912 0.092 2.578-0.031 2.848-0.526 4.087-3.67 3.584-6.649zM15.166 6.252c-0.784 1.17-1.584 0.346-2.703-0.475-1.119-0.818-2.135-1.322-1.352-2.492s2.326-1.455 3.447-0.635c1.12 0.819 1.391 2.432 0.608 3.602z"></path>
</symbol>
<symbol id="icon-location-pin" viewBox="0 0 20 20">
<title>location-pin</title>
<path d="M10 2.009c-2.762 0-5 2.229-5 4.99 0 4.774 5 11 5 11s5-6.227 5-11c0-2.76-2.238-4.99-5-4.99zM10 9.76c-1.492 0-2.7-1.209-2.7-2.7s1.208-2.7 2.7-2.7c1.49 0 2.699 1.209 2.699 2.7s-1.209 2.7-2.699 2.7z"></path>
</symbol>
<symbol id="icon-map" viewBox="0 0 20 20">
<title>map</title>
<path d="M19.447 3.718l-6-3c-0.281-0.141-0.613-0.141-0.895 0l-5.63 2.815-5.606-1.869c-0.306-0.102-0.64-0.051-0.901 0.138s-0.415 0.49-0.415 0.811v13.001c0 0.379 0.214 0.725 0.553 0.894l6 3c0.141 0.070 0.294 0.106 0.447 0.106s0.307-0.035 0.447-0.106l5.63-2.814 5.606 1.869c0.305 0.1 0.64 0.049 0.901-0.139s0.415-0.49 0.415-0.81v-13.002c0.001-0.379-0.213-0.725-0.552-0.894zM8 5.231l4-2v11.763l-4 2v-11.763zM2 4l4 1.333v11.661l-4-2v-10.994zM18 16.227l-4-1.334v-11.662l4 2v10.996z"></path>
</symbol>
<symbol id="icon-github" viewBox="0 0 20 20">
<title>github</title>
<path d="M13.18 11.309c-0.718 0-1.3 0.807-1.3 1.799 0 0.994 0.582 1.801 1.3 1.801s1.3-0.807 1.3-1.801c-0.001-0.992-0.582-1.799-1.3-1.799zM17.706 6.626c0.149-0.365 0.155-2.439-0.635-4.426 0 0-1.811 0.199-4.551 2.080-0.575-0.16-1.548-0.238-2.519-0.238-0.973 0-1.945 0.078-2.52 0.238-2.741-1.881-4.552-2.080-4.552-2.080-0.789 1.987-0.781 4.061-0.634 4.426-0.928 1.008-1.495 2.219-1.495 3.871 0 7.186 5.963 7.301 7.467 7.301 0.342 0 1.018 0.002 1.734 0.002s1.392-0.002 1.732-0.002c1.506 0 7.467-0.115 7.467-7.301 0-1.652-0.566-2.863-1.494-3.871zM10.028 16.915h-0.056c-3.771 0-6.709-0.449-6.709-4.115 0-0.879 0.31-1.693 1.047-2.369 1.227-1.127 3.305-0.531 5.662-0.531 0.010 0 0.020 0 0.029 0s0.018 0 0.027 0c2.357 0 4.436-0.596 5.664 0.531 0.735 0.676 1.045 1.49 1.045 2.369 0 3.666-2.937 4.115-6.709 4.115zM6.821 11.309c-0.718 0-1.3 0.807-1.3 1.799 0 0.994 0.582 1.801 1.3 1.801s1.301-0.807 1.301-1.801c0-0.992-0.582-1.799-1.301-1.799z"></path>
</symbol>
</defs>
</svg>
